<svg class="thatguy" fill="none" version="1.1" viewBox="0 -150 1200 1700" xmlns="http://www.w3.org/2000/svg">
 <style>.eyeball-left {  }
.eyeballL {   }
.eyeball-right {   }
.eyeballR {   }
.left-eye {   }
.right-eye {   }
.eyes {   }
.belly {   }
.tongue {   }
.mouth {   }
.left-foot {   }
.right-foot {   }
.right-arm {   }
.left-arm {   }
.arms {   }</style>
 <g class="gopher-animation">
  <g class="eyes " stroke="#675243" stroke-width="5">
   <path class="left-eye " d="m252.12 703.33c0-84.975 66.734-153.86 149.05-153.86 82.321 0 149.06 68.886 149.06 153.86s-66.734 153.86-149.06 153.86c-82.32 0-149.05-68.886-149.05-153.86z" clip-rule="evenodd" fill="#a0c6e0" fill-rule="evenodd"/>
   <path class="left-eye " d="m253.29 699.82c45.289-55.846 239.28-47.164 297.44 0"/>
   <path class="right-eye " d="m638.62 705.28c0-84.975 66.734-153.86 149.05-153.86 82.321 0 149.06 68.886 149.06 153.86s-66.734 153.86-149.06 153.86c-82.32 0-149.05-68.886-149.05-153.86z" clip-rule="evenodd" fill="#a0c6e0" fill-rule="evenodd"/>
   <path class="right-eye " d="m639.29 699.82c45.289-55.846 239.28-47.164 297.44 0"/>
  </g>
 </g>
</svg>
